<svg width="207" height="126" viewBox="0 0 207 126" fill="none" xmlns="http://www.w3.org/2000/svg">
<path fill-rule="evenodd" clip-rule="evenodd" d="M82.6058 124.299H115.783V112.118H93.8915V102.731H111.496V90.8004H93.8915V81.4111H115.783V69.2322H82.6058V124.299Z" fill="#FEFEFE"/>
<path fill-rule="evenodd" clip-rule="evenodd" d="M150.09 23.3496H138.578V1.27087H127.069V56.3379H138.578V35.5284H150.09V56.3379H161.601V1.27087H150.09V23.3496Z" fill="#FEFEFE"/>
<path fill-rule="evenodd" clip-rule="evenodd" d="M127.294 124.299H160.471V112.118H138.58V102.731H156.184V90.8004H138.58V81.4111H160.471V69.2322H127.294V124.299Z" fill="#FEFEFE"/>
<path fill-rule="evenodd" clip-rule="evenodd" d="M190.715 93.3399H182.138V80.9045H190.715C193.424 80.9045 195.453 81.9198 195.453 86.7428C195.453 91.3064 193.873 93.3399 190.715 93.3399ZM192.069 69.2305H170.853V124.3H182.138V104.76H192.069C197.485 104.76 206.513 101.206 206.513 86.9967C206.513 71.7689 197.711 69.2305 192.069 69.2305Z" fill="#FEFEFE"/>
<path fill-rule="evenodd" clip-rule="evenodd" d="M98.8554 35.2757H105.626C105.626 43.3958 103.145 45.4294 98.4039 45.4294C93.2138 45.4294 91.4077 42.1294 91.4077 35.2757V18.7815C91.4077 14.2124 94.3426 11.4229 98.4039 11.4229C103.145 11.4229 104.949 14.7228 104.949 18.7815H116.686C116.686 9.39216 111.044 0 98.4039 0C85.5403 0 79.8962 7.10758 79.8962 18.7815V35.2757C79.8962 44.6651 82.6054 56.8467 98.4039 56.8467C113.525 56.8467 116.912 46.4419 116.912 35.7862V25.1248H98.8554V35.2757Z" fill="#FEFEFE"/>
<path fill-rule="evenodd" clip-rule="evenodd" d="M18.0561 91.0543C12.6378 90.0417 11.2857 87.2494 11.2857 85.4725C11.2857 81.9215 13.5433 80.1446 17.3788 80.1446C21.6683 80.1446 22.7947 83.188 22.7947 84.9649H33.6288C33.6288 78.6216 29.7908 67.963 17.3788 67.963C3.61222 67.963 0 78.1111 0 85.7264C0 94.6081 6.32137 100.19 15.5727 101.713C18.7334 102.221 23.2462 103.236 23.2462 107.805C23.2462 111.356 21.4426 113.641 17.3788 113.641C14.6697 113.641 11.2857 113.133 11.2857 106.282H0C0 113.133 1.58035 125.058 17.3788 125.058C32.9515 125.058 34.7576 112.625 34.7576 107.551C34.7576 96.8926 28.4387 93.0878 18.0561 91.0543Z" fill="#FEFEFE"/>
<path fill-rule="evenodd" clip-rule="evenodd" d="M33.8548 43.9058H11.9607V34.5164H29.5653V22.5858H11.9607V13.1992H33.8548V1.01761H0.67749V56.0846H33.8548V43.9058Z" fill="#FEFEFE"/>
<path fill-rule="evenodd" clip-rule="evenodd" d="M55.7472 69.2317H44.464V124.299H72.2254V111.609H55.7472V69.2317Z" fill="#FEFEFE"/>
<path fill-rule="evenodd" clip-rule="evenodd" d="M182.138 56.3385H193.873V13.9608H204.256V1.27145H171.532V13.9608H182.138V56.3385Z" fill="#FEFEFE"/>
<path fill-rule="evenodd" clip-rule="evenodd" d="M52.3626 44.4123H44.4633V56.3373H71.7707V44.4123H63.6482V13.2009H71.545V1.27032H44.2375V13.2009H52.3626V44.4123Z" fill="#FEFEFE"/>
</svg>
