<svg width="88" height="151" viewBox="0 0 88 151" fill="none" xmlns="http://www.w3.org/2000/svg">
<mask id="mask0_12_202" style="mask-type:luminance" maskUnits="userSpaceOnUse" x="0" y="0" width="88" height="151">
<path d="M0 0H87.7996V150.94H0V0Z" fill="white"/>
</mask>
<g mask="url(#mask0_12_202)">
<path fill-rule="evenodd" clip-rule="evenodd" d="M63.7571 118.625C63.7571 123.775 60.0431 127.95 55.4634 127.95H32.3363C27.7565 127.95 24.045 123.775 24.045 118.625V101.319C24.045 96.1699 27.7565 91.9941 32.3363 91.9941H55.4634C60.0431 91.9941 63.7571 96.1699 63.7571 101.319V118.625ZM24.045 32.2575C24.045 27.1053 27.7565 22.9323 32.3363 22.9323H55.4634C60.0431 22.9323 63.7571 27.1053 63.7571 32.2575V44.7794C63.7571 49.9316 60.0431 54.1046 55.4634 54.1046H32.3363C27.7565 54.1046 24.045 49.9316 24.045 44.7794V32.2575ZM87.7996 45.8087V25.8194C87.7996 11.5512 77.5261 0 64.8363 0H22.9658C10.276 0 0 11.5512 0 25.8194V45.8087C0 56.3195 5.54981 65.2737 13.5111 69.3184V73.0145C5.54981 77.0592 0 86.0692 0 96.5242V125.119C0 139.387 10.276 150.941 22.9658 150.941H64.8363C77.5261 150.941 87.7996 139.387 87.7996 125.119V96.5242C87.7996 86.0692 82.2523 77.0592 74.2885 73.0145V69.3184C82.2523 65.2737 87.7996 56.2637 87.7996 45.8087Z" fill="#FEFEFE"/>
</g>
</svg>
